<svg xmlns="http://www.w3.org/2000/svg" viewBox="0 0 400 260" width="400" height="260">
  <defs>
    <linearGradient id="sky5" x1="0" y1="0" x2="0" y2="1">
      <stop offset="0%" stop-color="#bfdbfe"/>
      <stop offset="100%" stop-color="#fef3c7"/>
    </linearGradient>
  </defs>
  <rect width="400" height="260" fill="url(#sky5)"/>
  <rect x="0" y="210" width="400" height="50" fill="#0ea5e9"/>
  <rect x="0" y="195" width="400" height="18" fill="#f5deb3"/>
  <g transform="translate(170,70)">
    <line x1="40" y1="130" x2="40" y2="0" stroke="#78350f" stroke-width="6"/>
    <circle cx="40" cy="0" r="60" fill="none" stroke="#dc2626" stroke-width="8"/>
    <circle cx="40" cy="0" r="60" fill="none" stroke="#f3f4f6" stroke-width="2" stroke-dasharray="10 10"/>
    <circle cx="40" cy="-60" r="8" fill="#2563eb"/>
    <circle cx="97" cy="0" r="8" fill="#16a34a"/>
    <circle cx="40" cy="60" r="8" fill="#eab308"/>
    <circle cx="-17" cy="0" r="8" fill="#db2777"/>
    <circle cx="82" cy="-42" r="8" fill="#f97316"/>
    <circle cx="82" cy="42" r="8" fill="#9333ea"/>
    <circle cx="-2" cy="-42" r="8" fill="#0891b2"/>
    <circle cx="-2" cy="42" r="8" fill="#ef4444"/>
    <circle cx="40" cy="0" r="6" fill="#78350f"/>
  </g>
  <rect x="60" y="200" width="320" height="12" fill="#8b5e3c"/>
  <g fill="#1e3a8a" opacity="0.5">
    <path d="M0,230 Q20,222 40,230 T80,230 T120,230 T160,230 T200,230 T240,230 T280,230 T320,230 T360,230 T400,230" fill="none" stroke="#1e3a8a" stroke-width="3"/>
  </g>
</svg>
