<svg xmlns="http://www.w3.org/2000/svg" viewBox="0 0 400 260" width="400" height="260">
  <defs>
    <linearGradient id="sky6" x1="0" y1="0" x2="0" y2="1">
      <stop offset="0%" stop-color="#282828"/>
      <stop offset="100%" stop-color="#909090"/>
    </linearGradient>
  </defs>
  <rect width="400" height="260" fill="url(#sky6)"/>
  <circle cx="80" cy="60" r="4" fill="#ffffff"/>
  <circle cx="150" cy="40" r="3" fill="#ffffff"/>
  <circle cx="300" cy="50" r="3" fill="#ffffff"/>
  <circle cx="340" cy="90" r="4" fill="#ffffff"/>
  <rect x="100" y="140" width="200" height="80" rx="10" fill="#777777"/>
  <rect x="100" y="140" width="200" height="14" fill="#bfbfbf"/>
  <rect x="150" y="100" width="100" height="45" fill="#fafafa" stroke="#3f3f3f" stroke-width="2"/>
  <text x="160" y="130" font-size="14" font-family="Comic Sans MS, sans-serif" fill="#282828">TACOS!</text>
  <circle cx="130" cy="222" r="14" fill="#181818"/>
  <circle cx="130" cy="222" r="6" fill="#727272"/>
  <circle cx="270" cy="222" r="14" fill="#181818"/>
  <circle cx="270" cy="222" r="6" fill="#727272"/>
  <g transform="translate(60,170)">
    <path d="M0,20 Q20,-10 40,20 Z" fill="#d0d0d0" stroke="#535353" stroke-width="2"/>
    <circle cx="12" cy="14" r="3" fill="#5c5c5c"/>
    <circle cx="22" cy="10" r="3" fill="#6f6f6f"/>
    <circle cx="30" cy="15" r="3" fill="#5c5c5c"/>
  </g>
</svg>
