<svg xmlns="http://www.w3.org/2000/svg" viewBox="0 0 400 260" width="400" height="260">
  <defs>
    <linearGradient id="sky12" x1="0" y1="0" x2="0" y2="1">
      <stop offset="0%" stop-color="#e2e2e2"/>
      <stop offset="100%" stop-color="#bfbfbf"/>
    </linearGradient>
  </defs>
  <rect width="400" height="260" fill="url(#sky12)"/>
  <rect x="0" y="200" width="400" height="60" fill="#d4d4d4"/>
  <rect x="60" y="110" width="200" height="90" fill="#fafafa" stroke="#5c5c5c" stroke-width="4"/>
  <rect x="60" y="100" width="200" height="20" fill="#5c5c5c"/>
  <polygon points="150,30 180,100 120,100" fill="#c5c5c5" stroke="#5c5c5c" stroke-width="3"/>
  <text x="95" y="150" font-size="16" font-family="Comic Sans MS, sans-serif" fill="#5c5c5c" font-weight="bold">IN-N-OUT</text>
  <rect x="300" y="150" width="60" height="40" rx="6" fill="#606060"/>
  <circle cx="312" cy="192" r="8" fill="#282828"/>
  <circle cx="348" cy="192" r="8" fill="#282828"/>
  <g transform="translate(20,160)">
    <ellipse cx="20" cy="40" rx="24" ry="8" fill="#d4d4d4"/>
    <ellipse cx="20" cy="30" rx="20" ry="7" fill="#535353"/>
    <ellipse cx="20" cy="22" rx="18" ry="6" fill="#d0d0d0"/>
    <ellipse cx="20" cy="14" rx="20" ry="7" fill="#6f6f6f"/>
    <ellipse cx="20" cy="6" rx="18" ry="6" fill="#fafafa"/>
  </g>
</svg>
